<svg width="34" height="21" viewBox="0 0 34 21" fill="none" xmlns="http://www.w3.org/2000/svg">
<path d="M32.3822 9.0348H5.00226L11.5355 2.50113C12.1079 1.92911 12.1079 1.0012 11.5355 0.429266C10.9632 -0.143089 10.0352 -0.143089 9.46373 0.429266L0.429266 9.4639C-0.143089 10.0359 -0.143089 10.9639 0.429266 11.5358L9.46373 20.5708C9.74982 20.8571 10.1248 21 10.4996 21C10.8745 21 11.2494 20.8571 11.5355 20.5708C12.1079 19.9988 12.1079 19.0709 11.5355 18.499L5.00226 11.965H32.3822C33.1913 11.965 33.8474 11.309 33.8474 10.4999C33.8474 9.69076 33.1914 9.0348 32.3822 9.0348Z" fill="#473144"/>
</svg>
