<svg width="67" height="66" viewBox="0 0 67 66" fill="none" xmlns="http://www.w3.org/2000/svg">
<path d="M66.6405 10.5698C66.2646 9.95057 65.6448 9.51639 64.9296 9.37469L26.9781 0.361863C25.7274 0.123022 24.4934 0.803651 24.0605 1.98091L9.59449 38.1826L14.4239 39.9162L28.133 5.49426L61.1084 13.7834C59.049 20.0725 54.1485 33.1991 49.4508 45.4213C45.3553 56.0852 42.9986 59.7369 38.5192 60.4827C38.5139 60.4775 38.509 60.4724 38.509 60.4647C29.3544 61.7288 29.5187 50.2321 29.5187 50.2321L0.281219 38.5982C-1.79648 51.5709 8.3226 54.691 8.3226 54.691L29.7285 64.2646C29.7336 64.2673 33.0752 65.8352 36.7071 65.674C46.5034 65.4468 49.9461 58.4397 54.2597 47.2137C60.4915 30.9893 66.8167 12.8103 66.8789 12.6174C67.1019 11.9296 67.0138 11.1877 66.6405 10.5698Z" fill="#FFFDFA"/>
<path d="M49.3414 25.169C49.5644 25.229 49.7952 25.2609 50.0231 25.2609C51.1506 25.2609 52.1822 24.5204 52.4984 23.3967C52.8741 22.0471 52.0628 20.6529 50.6946 20.2851L39.556 16.8986C38.2029 16.5296 36.7717 17.3225 36.3984 18.6708C36.025 20.0203 36.8289 21.4146 38.2024 21.7837L49.3414 25.169Z" fill="#FFFDFA"/>
<path d="M31.9374 28.8128C31.491 30.1421 32.2158 31.5735 33.5614 32.0171L44.6416 35.9176C44.9107 36.0058 45.175 36.0454 45.4418 36.0469C46.5225 36.0525 47.5349 35.3809 47.8957 34.3176C48.3434 32.992 47.62 31.5584 46.269 31.115L35.1929 27.2171C33.8393 26.7759 32.3892 27.4897 31.9374 28.8128Z" fill="#FFFDFA"/>
<path d="M30.9626 37.7855C29.6146 37.3412 28.159 38.0662 27.7182 39.3995C27.275 40.7223 28.0138 42.1575 29.3618 42.5915L40.4652 46.4758C40.7327 46.5651 40.9992 46.6034 41.2693 46.6034C42.3476 46.6034 43.3535 45.9269 43.7087 44.8644C44.1518 43.5339 43.4158 42.1014 42.0678 41.6673L30.9626 37.7855Z" fill="#FFFDFA"/>
<path d="M30.5515 13.9457C32.1251 13.9457 33.4018 15.1689 33.4018 16.6756C33.4018 18.1835 32.1251 19.4053 30.5515 19.4053C28.9768 19.4053 27.7 18.1834 27.7 16.6756C27.7001 15.1689 28.9768 13.9457 30.5515 13.9457Z" fill="#FFFDFA"/>
<path d="M26.5192 24.0938C28.0941 24.0938 29.3695 25.3157 29.3695 26.8223C29.3695 28.3277 28.0941 29.5495 26.5192 29.5495C24.9445 29.5495 23.6677 28.3277 23.6677 26.8223C23.6677 25.3159 24.9445 24.0938 26.5192 24.0938Z" fill="#FFFDFA"/>
<path d="M22.2186 34.5637C23.7935 34.5637 25.0702 35.787 25.0702 37.2962C25.0702 38.8026 23.7935 40.0233 22.2186 40.0233C20.6439 40.0233 19.3671 38.8029 19.3671 37.2962C19.3671 35.787 20.6439 34.5637 22.2186 34.5637Z" fill="#FFFDFA"/>
</svg>
