<svg width="75" height="75" viewBox="0 0 75 75" fill="none" xmlns="http://www.w3.org/2000/svg">
<g clip-path="url(#clip0)">
<path d="M66.045 19.5171L58.0256 13.2284C59.1566 12.0406 59.8531 10.4354 59.8531 8.66956V6.61765C59.8531 2.96868 56.8844 0 53.2355 0H21.7647C18.1158 0 15.1471 2.96868 15.1471 6.61765V8.66956C15.1471 10.4353 15.8435 12.0404 16.9746 13.2284L8.95517 19.5171C7.76958 20.4468 7.84531 22.2696 9.10575 23.0969C12.7374 25.481 13.1694 25.8575 14.5293 26.2997L14.528 68.3426C14.528 72.0135 17.5152 75 21.1868 75H53.8133C57.485 75 60.4721 72.0135 60.4721 68.3426L60.4708 26.2996C61.1813 26.0684 61.8634 25.7426 62.4959 25.3278L65.8943 23.0968C67.1561 22.2687 67.2293 20.4457 66.045 19.5171ZM19.5588 6.61765C19.5588 5.40132 20.5484 4.41176 21.7647 4.41176H53.2353C54.4516 4.41176 55.4412 5.40132 55.4412 6.61765V8.66956C55.4412 9.88618 54.4513 10.8754 53.2353 10.8754H21.7647C20.5503 10.8754 19.5588 9.88779 19.5588 8.66956V6.61765ZM56.059 26.5073L56.0591 31.7157H18.9409L18.941 26.5069C19.9244 26.2856 20.8681 25.8872 21.7206 25.3279C23.07 24.4425 24.7462 24.4425 26.0974 25.3293C28.9152 27.1746 32.5055 27.1688 35.3124 25.3276C36.6394 24.456 38.3347 24.4391 39.6887 25.3282C42.4997 27.1723 46.09 27.1712 48.9041 25.3282C50.2455 24.4485 51.9372 24.4463 53.2799 25.3282C54.1331 25.8881 55.0768 26.2865 56.059 26.5073ZM56.0596 60.7353H18.9405L18.9416 36.1275H56.0586L56.0596 60.7353ZM53.8133 70.5882H21.1868C19.9477 70.5882 18.9397 69.5809 18.9397 68.3426L18.9399 65.147H56.0602L56.0603 68.3426C56.0603 69.5809 55.0524 70.5882 53.8133 70.5882ZM60.0755 21.6394C58.7556 22.5051 57.06 22.5315 55.7009 21.6401C52.8922 19.7951 49.2981 19.7937 46.4858 21.6384C45.1446 22.5169 43.4515 22.5206 42.1096 21.64C39.3011 19.7954 35.7027 19.7929 32.8915 21.6394C31.559 22.5134 29.8668 22.5238 28.5162 21.6397C25.7169 19.8022 22.0993 19.8022 19.3003 21.6394C16.8833 23.2251 14.8233 21.5729 14.0937 21.0938L21.5068 15.2806H53.4933L60.9063 21.0938L60.0755 21.6394Z" fill="#FFFDFA"/>
<path d="M42.9757 52.5368C45.3366 49.1882 45.9885 44.1172 42.2418 42.0424C39.9 40.7453 35.0997 40.7454 32.7582 42.0424C29.0075 44.1194 29.67 49.1978 32.0243 52.5368C35.0737 56.8616 39.9249 56.8638 42.9757 52.5368ZM34.8957 45.9016C35.8888 45.3516 39.1112 45.3516 40.1043 45.9016C40.2844 46.0015 40.4885 46.1144 40.4885 46.8062C40.4885 48.8099 38.8127 51.3677 37.5 51.3677C36.1872 51.3677 34.5115 48.8099 34.5115 46.8062C34.5115 46.1144 34.7157 46.0015 34.8957 45.9016Z" fill="#FFFDFA"/>
</g>
<defs>
<clipPath id="clip0">
<rect width="75" height="75" fill="white"/>
</clipPath>
</defs>
</svg>
