<svg width="30" height="30" viewBox="0 0 30 30" fill="none" xmlns="http://www.w3.org/2000/svg">
<path d="M20.0334 3.43241C15.4569 -1.14413 8.0082 -1.14413 3.43166 3.43241C-1.14389 8.00994 -1.14389 15.4576 3.43166 20.0351C7.50719 24.1097 13.8546 24.5462 18.4282 21.3645C18.5244 21.8199 18.7447 22.2545 19.0988 22.6086L25.7637 29.2735C26.735 30.2428 28.3045 30.2428 29.2708 29.2735C30.2411 28.3033 30.2411 26.7338 29.2708 25.7665L22.6059 19.0996C22.2537 18.7484 21.8182 18.5271 21.3628 18.4309C24.5464 13.8564 24.1099 7.50992 20.0334 3.43241ZM17.9292 17.9309C14.5124 21.3477 8.95168 21.3477 5.5359 17.9309C2.1211 14.5141 2.1211 8.95441 5.5359 5.53763C8.95168 2.12185 14.5124 2.12185 17.9292 5.53763C21.3459 8.95441 21.3459 14.5141 17.9292 17.9309Z" fill="#FFFDFA"/>
</svg>
