<svg width="33" height="33" viewBox="0 0 33 33" fill="none" xmlns="http://www.w3.org/2000/svg">
<path d="M30.4891 10.5815H28.7785C28.7654 10.567 28.7531 10.5519 28.7391 10.538L19.4131 1.2119C18.9929 0.79167 18.3115 0.79167 17.8913 1.2119C17.4711 1.63214 17.4711 2.31347 17.8913 2.73371L25.739 10.5815H7.2609L15.1087 2.73371C15.5289 2.31347 15.5289 1.63214 15.1087 1.2119C14.6885 0.79167 14.0071 0.79167 13.5869 1.2119L4.2608 10.538C4.24682 10.552 4.23457 10.567 4.22149 10.5815H2.5109C1.12638 10.5815 0 11.7079 0 13.0924V14.5271C0 15.8459 1.0219 16.9304 2.31541 17.0305L4.37791 29.4057C4.6385 30.9688 5.97764 32.1033 7.56229 32.1033H25.7529C27.3491 32.1033 28.723 30.9116 28.9487 29.3315L30.7062 17.0287C31.9895 16.9182 32.9999 15.8384 32.9999 14.5271V13.0924C33 11.7079 31.8736 10.5815 30.4891 10.5815ZM30.8478 14.5271C30.8478 14.725 30.6869 14.8858 30.4892 14.8858C30.1588 14.8858 20.1997 14.8858 19.7283 14.8858C19.1341 14.8858 18.6522 15.3676 18.6522 15.9619C18.6522 16.5562 19.134 17.038 19.7283 17.038H28.5311L26.8183 29.0272C26.743 29.5539 26.2851 29.9511 25.753 29.9511H7.56229C7.03409 29.9511 6.58769 29.573 6.50081 29.0519L4.49857 17.038H13.2717C13.866 17.038 14.3478 16.5563 14.3478 15.9619C14.3478 15.3677 13.8661 14.8858 13.2717 14.8858C12.7996 14.8858 2.83987 14.8858 2.5109 14.8858C2.31309 14.8858 2.15222 14.7249 2.15222 14.5271V13.0924C2.15222 12.8945 2.31316 12.7337 2.5109 12.7337H30.4892C30.687 12.7337 30.8478 12.8946 30.8478 13.0924V14.5271Z" fill="white"/>
<path d="M10.0435 19.1902C9.44923 19.1902 8.96738 19.672 8.96738 20.2663V26.7228C8.96738 27.3171 9.44916 27.7989 10.0435 27.7989C10.6378 27.7989 11.1196 27.3172 11.1196 26.7228V20.2662C11.1196 19.672 10.6378 19.1902 10.0435 19.1902Z" fill="white"/>
<path d="M16.5 19.1902C15.9057 19.1902 15.4239 19.672 15.4239 20.2663V26.7228C15.4239 27.3171 15.9057 27.7989 16.5 27.7989C17.0942 27.7989 17.5761 27.3172 17.5761 26.7228V20.2662C17.5761 19.672 17.0942 19.1902 16.5 19.1902Z" fill="white"/>
<path d="M22.9565 19.1902C22.3623 19.1902 21.8804 19.672 21.8804 20.2663V26.7228C21.8804 27.3171 22.3622 27.7989 22.9565 27.7989C23.5508 27.7989 24.0326 27.3172 24.0326 26.7228V20.2662C24.0326 19.672 23.5508 19.1902 22.9565 19.1902Z" fill="white"/>
</svg>
