<svg width="15" height="14" viewBox="0 0 15 14" fill="none" xmlns="http://www.w3.org/2000/svg">
<path d="M14.3809 6.37205C14.6703 6.10349 14.7724 5.70934 14.6476 5.34294C14.5225 4.97654 14.1967 4.71498 13.7964 4.65948L10.237 4.16693C10.0854 4.1459 9.95446 4.05535 9.88676 3.92444L8.29549 0.85307C8.11681 0.507975 7.75417 0.293518 7.35002 0.293518C6.94617 0.293518 6.58353 0.507975 6.40486 0.85307L4.81329 3.92472C4.74559 4.05563 4.6143 4.14618 4.46271 4.16721L0.903394 4.65976C0.503367 4.71498 0.177224 4.97682 0.052124 5.34322C-0.0726818 5.70962 0.0294588 6.10377 0.318808 6.37233L2.8941 8.76304C3.0039 8.86508 3.05423 9.01198 3.02833 9.15551L2.42078 12.5313C2.36692 12.8285 2.44875 13.1175 2.65067 13.3454C2.96445 13.7006 3.51225 13.8088 3.95024 13.5896L7.13338 11.9956C7.26643 11.9292 7.43391 11.9297 7.56667 11.9956L10.7501 13.5896C10.9049 13.6672 11.0701 13.7065 11.2405 13.7065C11.5516 13.7065 11.8466 13.5747 12.0494 13.3454C12.2516 13.1175 12.3331 12.8279 12.2793 12.5313L11.6714 9.15551C11.6455 9.0117 11.6959 8.86508 11.8056 8.76304L14.3809 6.37205Z" fill="#473144"/>
</svg>
